<svg width="27" height="26" viewBox="0 0 27 26" fill="none" xmlns="http://www.w3.org/2000/svg">
<path d="M13.5 0.8125C6.54462 0.8125 0.90625 6.26904 0.90625 13C0.90625 19.731 6.54462 25.1875 13.5 25.1875C20.4553 25.1875 26.0938 19.731 26.0938 13C26.0938 6.26904 20.4553 0.8125 13.5 0.8125ZM12.1953 23.371C9.80585 23.0941 7.59505 22.059 5.86698 20.3867C3.82812 18.4137 2.70534 15.7904 2.70534 13C2.70534 10.4881 3.61572 8.11188 5.2847 6.22311C5.32769 6.72215 5.43382 7.25717 5.40664 7.63961C5.30734 9.03385 5.16518 9.90643 6.00847 11.0827C6.337 11.5408 6.41771 12.1976 6.57762 12.7279C6.73401 13.2467 7.35879 13.5188 7.7897 13.8384C8.6591 14.4835 9.49083 15.2332 10.4127 15.801C11.0211 16.1757 11.4012 16.3621 11.223 17.0806C11.0797 17.6584 11.0397 18.0144 10.7308 18.5292C10.6365 18.6863 11.0866 19.6963 11.2364 19.8412C11.6904 20.2805 12.1408 20.6835 12.6357 21.079C13.4029 21.6924 12.5612 22.4895 12.1953 23.371ZM21.133 20.3867C19.581 21.8887 17.6395 22.8762 15.529 23.2626C15.8281 22.5468 16.3607 21.9108 16.8547 21.5421C17.2844 21.2213 17.8226 20.6041 18.047 20.1153C18.2713 19.6271 18.5684 19.2038 18.8691 18.7549C19.2968 18.1163 17.8144 17.1532 17.334 16.9513C16.253 16.4972 15.4393 15.8843 14.4786 15.2301C13.7941 14.7641 12.4044 15.4735 11.6316 15.1471C10.5732 14.6999 9.70123 13.9227 8.78122 13.2522C7.83184 12.5603 7.87774 11.7537 7.87774 10.7329C8.62138 10.7594 9.67925 10.5337 10.1729 11.1125C10.3287 11.2951 10.8644 12.111 11.223 11.8211C11.5159 11.5842 11.0059 10.6346 10.9074 10.4114C10.6043 9.72496 11.5979 9.45725 12.1064 8.99178C12.77 8.38451 14.1934 7.43213 14.0809 6.99684C13.9685 6.56154 12.6566 5.32826 11.8862 5.52068C11.7707 5.54951 10.7541 6.58106 10.5577 6.74289C10.5629 6.40621 10.5681 6.06959 10.5735 5.73291C10.5768 5.52033 10.1637 5.30213 10.1829 5.16502C10.2313 4.8185 11.228 4.18961 11.476 3.91363C11.3023 3.80857 10.7095 3.31586 10.5301 3.38816C10.0958 3.56336 9.6052 3.68406 9.17084 3.8592C9.17084 3.71342 9.15255 3.57648 9.13076 3.44125C10.0055 3.06678 10.9282 2.80759 11.8741 2.67062L12.7269 3.00227L13.329 3.69373L13.9298 4.29332L14.4551 4.45709L15.2893 3.69566L15.0742 3.15209V2.66348C16.7241 2.89539 18.2822 3.49105 19.6468 4.40957C19.4027 4.43072 19.1344 4.46547 18.8318 4.50273C18.7067 4.43125 18.5463 4.39879 18.41 4.34904C18.8055 5.17182 19.2179 5.98322 19.637 6.7951C20.0846 7.66234 21.0776 8.59258 21.2519 9.50805C21.4574 10.5871 21.3148 11.5673 21.4273 12.8368C21.5355 14.0594 22.8516 15.4485 22.8516 15.4485C22.8516 15.4485 23.4593 15.6488 23.9647 15.579C23.4936 17.3827 22.5277 19.0369 21.133 20.3867Z" fill="#ABB2C0"/>
</svg>
